<svg width="40" height="40" viewBox="0 0 40 40" fill="none" xmlns="http://www.w3.org/2000/svg">
<path fill-rule="evenodd" clip-rule="evenodd" d="M20 40C31.0457 40 40 31.0457 40 20C40 8.9543 31.0457 0 20 0C8.9543 0 0 8.9543 0 20C0 31.0457 8.9543 40 20 40ZM9 20C9 13.9198 13.9208 9 20 9C26.122 9 31 12.8878 31 18.9355C31 22.2975 29.1641 25.4738 24.3335 25.4738H24.3334C22.9985 25.4738 21.6195 25.4738 21.1972 23.9612C20.4156 24.9679 19.0678 25.6615 17.871 25.6615C15.2445 25.6615 13.6129 23.8621 13.6129 20.9656C13.6129 17.008 16.4184 14.2476 19.7264 14.2476C20.5923 14.2476 21.7345 14.4195 22.3864 15.2134L22.3868 15.2094C22.4034 15.063 22.4734 14.9279 22.5832 14.8298C22.6931 14.7316 22.8353 14.6774 22.9826 14.6774H24.9777C25.6467 14.6774 26.1499 15.2873 26.0228 15.9441L24.9834 21.316C24.8311 22.0774 24.8117 22.6275 25.5812 22.6477C27.2257 22.4724 28.1613 20.6558 28.1613 18.9355C28.1613 14.3944 24.4416 11.8387 20 11.8387C15.4998 11.8387 11.8387 15.4998 11.8387 20C11.8387 24.5002 15.4998 28.1613 20 28.1613C21.5663 28.1613 23.1013 27.707 24.4093 26.868C24.8615 26.578 25.4606 26.6799 25.8009 27.0955L26.2523 27.647C26.6547 28.1386 26.5385 28.8693 26.006 29.2159C24.2289 30.3728 22.1359 31 20 31C13.9198 31 9 26.0792 9 20ZM17.4385 20.6946C17.4385 21.81 18.0515 22.5029 19.0384 22.5029C20.1156 22.5029 21.6181 21.2757 21.6181 19.277C21.6181 18.1447 21.0278 17.4687 20.039 17.4687C18.8037 17.4687 17.4385 18.6989 17.4385 20.6946Z" fill="#B0B0B0"/>
</svg>
