<svg width="40" height="40" viewBox="0 0 40 40" fill="none" xmlns="http://www.w3.org/2000/svg">
<path fill-rule="evenodd" clip-rule="evenodd" d="M20 40C31.0457 40 40 31.0457 40 20C40 8.9543 31.0457 0 20 0C8.9543 0 0 8.9543 0 20C0 31.0457 8.9543 40 20 40ZM9.36339 30H13.9245V15.3117H9.36339V30ZM9 10.6415C9 12.1 10.183 13.3081 11.6415 13.3081C13.0995 13.3081 14.2829 12.1 14.2829 10.6415C14.2829 9.94095 14.0046 9.26907 13.5093 8.77369C13.0139 8.2783 12.342 8 11.6415 8C10.9409 8 10.269 8.2783 9.77367 8.77369C9.2783 9.26907 9 9.94095 9 10.6415ZM26.4438 30H30.9951H31V21.9315C31 17.9832 30.1514 14.9434 25.5354 14.9434C23.3162 14.9434 21.8287 16.1613 21.2198 17.3153H21.156V15.3117H16.7815V30H21.3377V22.7271C21.3377 20.8118 21.7011 18.9605 24.0725 18.9605C26.4095 18.9605 26.4438 21.1458 26.4438 22.8498V30Z" fill="#B0B0B0"/>
</svg>
