<svg width="20" height="27" viewBox="0 0 20 27" fill="none" xmlns="http://www.w3.org/2000/svg">
<path d="M19.2656 5.26986L14.8958 0.900919C14.4271 0.43226 13.7917 0.166687 13.1302 0.166687H2.5C1.11979 0.171894 0 1.29147 0 2.67141V24.3338C0 25.7138 1.11979 26.8334 2.5 26.8334H17.5C18.8802 26.8334 20 25.7138 20 24.3338V7.04034C20 6.37902 19.7344 5.73852 19.2656 5.26986ZM17.2969 6.83726H13.3333V2.87449L17.2969 6.83726ZM2.5 24.3338V2.67141H10.8333V8.08702C10.8333 8.77959 11.3906 9.33677 12.0833 9.33677H17.5V24.3338H2.5ZM13.9635 13.5026C13.6667 13.5026 13.4115 13.7109 13.3542 13.9973C12.2812 19.0849 12.2917 18.9651 12.2604 19.3869C12.25 19.3244 12.2396 19.2515 12.224 19.163C12.1823 18.8974 12.2396 19.1734 10.9948 13.9817C10.9271 13.7005 10.6771 13.5026 10.3854 13.5026H9.69271C9.40625 13.5026 9.15625 13.7005 9.08333 13.9765C7.8125 19.1317 7.83333 18.9859 7.79167 19.3765C7.78646 19.3192 7.78125 19.2463 7.76562 19.1578C7.72917 18.887 7.03125 15.3408 6.77083 14.0025C6.71354 13.7109 6.45833 13.4974 6.15625 13.4974H5.28125C4.875 13.4974 4.57812 13.8776 4.67187 14.2681C5.08854 15.9657 6.0625 19.9701 6.40104 21.3501C6.46875 21.6312 6.71875 21.8239 7.01042 21.8239H8.32292C8.60938 21.8239 8.85937 21.6312 8.92708 21.3501L9.85938 17.632C9.9375 17.3092 9.98958 17.0071 10.0156 16.7312L10.1667 17.632C10.1719 17.6529 10.8229 20.2617 11.099 21.3501C11.1667 21.626 11.4167 21.8239 11.7031 21.8239H12.9896C13.276 21.8239 13.526 21.6312 13.5938 21.3501C14.6771 17.0853 15.1667 15.1533 15.3906 14.2681C15.4896 13.8723 15.1927 13.4922 14.7865 13.4922H13.9635V13.5026Z" fill="#F2A365"/>
</svg>
